<svg width="16" height="17" fill="none" xmlns="http://www.w3.org/2000/svg"><path fill-rule="evenodd" clip-rule="evenodd" d="M5.571 2.857c0 1.578-1.247 2.857-2.785 2.857C1.247 5.714 0 4.435 0 2.857 0 1.28 1.247 0 2.786 0 4.324 0 5.57 1.28 5.57 2.857Zm0 10.286C5.571 14.72 4.324 16 2.786 16 1.247 16 0 14.72 0 13.143c0-1.578 1.247-2.857 2.786-2.857 1.538 0 2.785 1.279 2.785 2.857Zm7.243-7.429c1.539 0 2.786-1.279 2.786-2.857C15.6 1.28 14.353 0 12.814 0c-1.538 0-2.785 1.28-2.785 2.857 0 1.578 1.247 2.857 2.785 2.857Z" fill="#F3603C"/><ellipse opacity=".5" cx="12.814" cy="13.257" rx="2.786" ry="2.857" fill="#F3603C"/></svg>